
<svg xmlns="http://www.w3.org/2000/svg" width="160" height="80" viewBox="0 0 160 80" fill="none">
  <path d="M134.67 57.048V13.396H141.29V27.246H159.682V13.396H166.304V57.048H159.682V33.089H141.29V57.048H134.67Z" fill="#00AAFF"/>
  <path d="M104.495 41.081H119.865V46.923H104.495V51.202H121.965V57.048H97.873V13.396H121.965V19.243H104.495V35.238H119.865V41.081Z" fill="#00AAFF"/>
  <path d="M69.143 57.048H62.522V13.396H77.888C87.76 13.396 94.243 17.896 94.243 27.053C94.243 35.824 87.738 41.081 77.888 41.081H69.143V57.048ZM69.143 35.238H77.31C83.677 35.238 87.621 32.503 87.621 27.053C87.621 21.603 83.677 19.243 77.31 19.243H69.143V35.238Z" fill="#00AAFF"/>
  <path d="M55.944 35.222C55.944 47.764 46.638 57.535 32.978 57.535C19.318 57.535 10 47.764 10 35.222C10 22.68 19.318 13 32.978 13C46.638 13 55.944 22.68 55.944 35.222ZM16.624 35.222C16.624 44.409 23.085 51.689 32.978 51.689C42.871 51.689 49.332 44.409 49.332 35.222C49.332 26.035 42.871 18.847 32.978 18.847C23.085 18.847 16.624 26.035 16.624 35.222Z" fill="#00AAFF"/>
</svg>
